<svg width="17" height="17" viewBox="0 0 17 17" fill="none" xmlns="http://www.w3.org/2000/svg">
<g clip-path="url(#clip0_1057_109342)">
<path d="M8.5 0.5C6.91775 0.5 5.37104 0.969192 4.05544 1.84824C2.73985 2.72729 1.71447 3.97672 1.10897 5.43853C0.503466 6.90034 0.34504 8.50887 0.653721 10.0607C0.962403 11.6126 1.72433 13.038 2.84315 14.1569C3.96197 15.2757 5.38743 16.0376 6.93928 16.3463C8.49113 16.655 10.0997 16.4965 11.5615 15.891C13.0233 15.2855 14.2727 14.2602 15.1518 12.9446C16.0308 11.629 16.5 10.0823 16.5 8.5C16.4977 6.37897 15.6541 4.34547 14.1543 2.84568C12.6545 1.34589 10.621 0.502294 8.5 0.5V0.5ZM8.5 15.1667C7.18146 15.1667 5.89253 14.7757 4.7962 14.0431C3.69987 13.3106 2.84539 12.2694 2.34081 11.0512C1.83622 9.83305 1.7042 8.49261 1.96144 7.1994C2.21867 5.90619 2.85361 4.71831 3.78596 3.78596C4.71831 2.85361 5.9062 2.21867 7.1994 1.96143C8.49261 1.7042 9.83305 1.83622 11.0512 2.3408C12.2694 2.84539 13.3106 3.69987 14.0431 4.7962C14.7757 5.89253 15.1667 7.18146 15.1667 8.5C15.1647 10.2675 14.4617 11.9621 13.2119 13.2119C11.9621 14.4617 10.2675 15.1647 8.5 15.1667Z" fill="#027A48"/>
<path d="M8.49996 7.1665H7.83329C7.65648 7.1665 7.48691 7.23674 7.36189 7.36177C7.23686 7.48679 7.16663 7.65636 7.16663 7.83317C7.16663 8.00998 7.23686 8.17955 7.36189 8.30458C7.48691 8.4296 7.65648 8.49984 7.83329 8.49984H8.49996V12.4998C8.49996 12.6766 8.57019 12.8462 8.69522 12.9712C8.82024 13.0963 8.98981 13.1665 9.16662 13.1665C9.34343 13.1665 9.513 13.0963 9.63803 12.9712C9.76305 12.8462 9.83329 12.6766 9.83329 12.4998V8.49984C9.83329 8.14622 9.69281 7.80708 9.44276 7.55703C9.19272 7.30698 8.85358 7.1665 8.49996 7.1665Z" fill="#027A48"/>
<path d="M8.5 5.8335C9.05228 5.8335 9.5 5.38578 9.5 4.8335C9.5 4.28121 9.05228 3.8335 8.5 3.8335C7.94772 3.8335 7.5 4.28121 7.5 4.8335C7.5 5.38578 7.94772 5.8335 8.5 5.8335Z" fill="#027A48"/>
</g>
<defs>
<clipPath id="clip0_1057_109342">
<rect width="16" height="16" fill="white" transform="translate(0.5 0.5)"/>
</clipPath>
</defs>
</svg>
